<?xml version="1.0" encoding="UTF-8"?>
<svg id="REVISTA_AJE" data-name="REVISTA AJE" xmlns="http://www.w3.org/2000/svg" viewBox="0 0 1120.44 274.22">
  <defs>
    <style>
      .cls-1 {
        fill: #fff;
      }

      .cls-1, .cls-2, .cls-3, .cls-4, .cls-5 {
        stroke-width: 0px;
      }

      .cls-2 {
        fill: #fff;
      }

      .cls-3 {
        fill: #fff;
        fill-rule: evenodd;
      }

      .cls-4 {
        fill: #fff;
      }

      .cls-5 {
        fill: #26644c;
      }
    </style>
  </defs>
  <path class="cls-2" d="M345.53,116.01c-5.16,6.53-10.49,12.83-15.96,18.89-5.48,6.06-10.98,11.43-16.52,16.12-5.53,4.69-11.04,8.43-16.52,11.22-5.48,2.79-10.75,4.19-15.81,4.19-3.48,0-6.24-.4-8.3-1.19-2.05-.79-3.64-1.74-4.74-2.85-1.11-1.11-1.84-2.26-2.21-3.48-.37-1.21-.55-2.29-.55-3.24,0-1.79.53-3.32,1.58-4.58,1.05-1.26,2.53-1.9,4.43-1.9,1.68,0,3,.58,3.95,1.74.95,1.16,1.42,2.53,1.42,4.11,0,.95-.26,1.9-.79,2.84-.53.95-1.26,1.53-2.21,1.74.95,1.48,2.26,2.45,3.95,2.92,1.68.47,3.42.71,5.22.71,4.53,0,9.3-1.32,14.3-3.95,5-2.63,10.06-6.08,15.17-10.35,5.11-4.27,10.19-9.11,15.25-14.54,5.06-5.43,9.9-10.98,14.54-16.67,2-2.53,4.5-5.63,7.51-9.33,3-3.69,6.4-7.69,10.19-12.01,3.79-4.32,7.93-8.72,12.41-13.2,4.48-4.48,9.25-8.72,14.3-12.72,5.06-4,10.33-7.59,15.81-10.75,5.48-3.16,11.06-5.53,16.75-7.11l.47.63c-3.58,3.27-7.32,7.32-11.22,12.17-3.9,4.85-7.72,10.09-11.46,15.72-3.74,5.64-7.3,11.56-10.67,17.78-3.37,6.22-6.35,12.41-8.93,18.57-2.58,6.16-4.64,12.09-6.16,17.78-1.53,5.69-2.29,10.91-2.29,15.65,0,3.27.55,6.03,1.66,8.3,1.11,2.27,3.34,3.4,6.72,3.4,2,0,4.29-.74,6.87-2.21,2.58-1.47,5.3-3.42,8.14-5.85,2.84-2.42,5.66-5.11,8.45-8.06,2.79-2.95,5.45-5.87,7.98-8.77,2.53-2.9,4.79-5.64,6.8-8.22,2-2.58,3.58-4.66,4.74-6.24l1.11.47c-3.58,4.53-7.38,9.32-11.38,14.38-4.01,5.06-8.06,9.67-12.17,13.83-4.11,4.16-8.25,7.61-12.41,10.35-4.16,2.74-8.14,4.11-11.93,4.11-2.53,0-4.66-.45-6.4-1.34-1.74-.89-3.19-2.13-4.35-3.71-1.16-1.58-2-3.37-2.53-5.37-.53-2-.79-4.11-.79-6.32,0-6.01.84-11.77,2.53-17.31,1.68-5.53,3.58-10.98,5.69-16.36h-21.65ZM367.97,114.11c4.74-9.8,10.35-19.38,16.83-28.76,6.48-9.38,14.15-18.28,23-26.71l-.32-.32c-5.59,2.74-11.04,6.11-16.36,10.11-5.32,4.01-10.51,8.43-15.57,13.28-5.06,4.85-9.98,10.01-14.78,15.49-4.8,5.48-9.46,11.12-13.99,16.91h21.18Z"/>
  <path class="cls-2" d="M472.28,125.49c-2.43,3.9-5.61,8.09-9.56,12.57-3.95,4.48-8.25,8.67-12.88,12.57-5.69,4.74-11.38,8.56-17.07,11.46-5.69,2.9-11.28,4.35-16.75,4.35-3.9,0-7.17-1.03-9.8-3.08-2.64-2.06-3.95-5.08-3.95-9.09,0-5.06,1.45-10.22,4.35-15.49,2.9-5.27,6.53-10.09,10.91-14.46,4.37-4.37,9.17-7.93,14.38-10.67,5.22-2.74,10.14-4.11,14.78-4.11,3.06,0,5.71.55,7.98,1.66,2.26,1.11,3.4,3.03,3.4,5.77,0,1.27-.34,2.32-1.03,3.16-.69.84-1.53,1.53-2.53,2.06-1,.53-2.11.92-3.32,1.19-1.21.26-2.29.45-3.24.55.42-1.05.79-2.13,1.11-3.24.32-1.11.47-2.24.47-3.4,0-3.9-1.84-5.85-5.53-5.85-2.74,0-5.98,1.34-9.72,4.03-3.74,2.69-7.27,6.08-10.59,10.19-3.32,4.11-6.14,8.64-8.45,13.59-2.32,4.95-3.48,9.75-3.48,14.38,0,2.85.66,5.27,1.98,7.27,1.32,2,3.34,3,6.08,3,3.69,0,7.93-1.21,12.72-3.63,4.79-2.42,9.46-5.43,13.99-9.01,4.74-3.69,9.3-7.93,13.67-12.72,4.37-4.79,8.03-9.46,10.98-13.99l1.11.95Z"/>
  <polygon class="cls-1" points="483.24 165.16 483.24 88.26 455.78 88.26 455.78 72.6 529.34 72.6 529.34 88.26 501.93 88.26 501.93 165.16 483.24 165.16"/>
  <path class="cls-1" d="M541.27,72.6h18.69v50.13c0,7.96.23,13.11.69,15.47.8,3.79,2.7,6.83,5.71,9.12,3.01,2.29,7.12,3.44,12.34,3.44s9.3-1.08,12-3.25c2.69-2.17,4.31-4.83,4.86-7.99.55-3.16.82-8.4.82-15.72v-51.21h18.69v48.62c0,11.11-.5,18.96-1.52,23.55-1.01,4.59-2.87,8.46-5.59,11.62-2.71,3.16-6.35,5.67-10.89,7.54-4.55,1.87-10.48,2.81-17.81,2.81-8.84,0-15.54-1.02-20.11-3.06-4.57-2.04-8.18-4.69-10.83-7.96-2.65-3.26-4.4-6.68-5.24-10.26-1.22-5.3-1.83-13.13-1.83-23.49v-49.38Z"/>
  <path class="cls-1" d="M718.25,165.16h-20.33l-8.08-21.03h-37l-7.64,21.03h-19.83l36.05-92.56h19.76l37.06,92.56ZM683.84,128.54l-12.75-34.35-12.5,34.35h25.26Z"/>
  <polygon class="cls-1" points="728.67 165.16 728.67 73.36 747.36 73.36 747.36 149.57 793.83 149.57 793.83 165.16 728.67 165.16"/>
  <rect class="cls-1" x="806.59" y="72.6" width="18.69" height="92.56"/>
  <path class="cls-1" d="M843.02,72.6h34.16c7.7,0,13.58.59,17.62,1.77,5.43,1.6,10.08,4.44,13.95,8.52,3.87,4.08,6.82,9.08,8.84,15,2.02,5.91,3.03,13.21,3.03,21.88,0,7.62-.95,14.19-2.84,19.7-2.32,6.74-5.62,12.19-9.91,16.35-3.24,3.16-7.62,5.62-13.13,7.39-4.13,1.31-9.64,1.96-16.54,1.96h-35.17v-92.56ZM861.71,88.26v61.31h13.96c5.22,0,8.99-.29,11.3-.88,3.03-.76,5.54-2.04,7.54-3.85,2-1.81,3.63-4.79,4.89-8.93,1.26-4.15,1.89-9.8,1.89-16.95s-.63-12.65-1.89-16.48c-1.26-3.83-3.03-6.82-5.3-8.97-2.27-2.15-5.16-3.6-8.65-4.36-2.61-.59-7.73-.88-15.34-.88h-8.4Z"/>
  <path class="cls-1" d="M1019.94,165.16h-20.33l-8.08-21.03h-37l-7.64,21.03h-19.83l36.05-92.56h19.76l37.06,92.56ZM985.53,128.54l-12.75-34.35-12.5,34.35h25.26Z"/>
  <path class="cls-1" d="M1029.79,72.6h34.16c7.7,0,13.58.59,17.62,1.77,5.43,1.6,10.08,4.44,13.95,8.52,3.87,4.08,6.82,9.08,8.84,15,2.02,5.91,3.03,13.21,3.03,21.88,0,7.62-.95,14.19-2.84,19.7-2.32,6.74-5.62,12.19-9.91,16.35-3.24,3.16-7.62,5.62-13.13,7.39-4.13,1.31-9.64,1.96-16.54,1.96h-35.17v-92.56ZM1048.48,88.26v61.31h13.96c5.22,0,8.99-.29,11.3-.88,3.03-.76,5.54-2.04,7.54-3.85,2-1.81,3.63-4.79,4.89-8.93,1.26-4.15,1.89-9.8,1.89-16.95s-.63-12.65-1.89-16.48c-1.26-3.83-3.03-6.82-5.3-8.97-2.27-2.15-5.16-3.6-8.65-4.36-2.61-.59-7.73-.88-15.34-.88h-8.4Z"/>
  <rect class="cls-4" x="314.39" y="167.86" width="806.05" height="60.35"/>
  <path class="cls-1" d="M338.92,180.6h9.21v27.64c0,3.61-.33,6.39-1,8.34-.89,2.54-2.52,4.58-4.87,6.12-2.35,1.54-5.45,2.31-9.3,2.31-4.51,0-7.99-1.21-10.42-3.62-2.43-2.41-3.66-5.95-3.68-10.62l8.71-.95c.1,2.5.49,4.27,1.16,5.3,1,1.57,2.52,2.35,4.56,2.35s3.52-.56,4.37-1.68c.85-1.12,1.28-3.45,1.28-6.98v-28.2Z"/>
  <path class="cls-1" d="M357.9,180.6h9.24v23.65c0,3.75.11,6.18.34,7.3.4,1.79,1.34,3.22,2.82,4.3,1.49,1.08,3.52,1.62,6.1,1.62s4.6-.51,5.93-1.53c1.33-1.02,2.13-2.28,2.4-3.77.27-1.49.4-3.96.4-7.42v-24.15h9.24v22.93c0,5.24-.25,8.94-.75,11.11-.5,2.16-1.42,3.99-2.76,5.48-1.34,1.49-3.14,2.68-5.39,3.56-2.25.88-5.18,1.33-8.8,1.33-4.37,0-7.68-.48-9.94-1.45-2.26-.96-4.04-2.21-5.35-3.75-1.31-1.54-2.17-3.15-2.59-4.84-.6-2.5-.9-6.19-.9-11.08v-23.29Z"/>
  <path class="cls-1" d="M404.16,224.26v-43.66h19.44c4.89,0,8.44.39,10.66,1.18,2.22.78,3.99,2.18,5.32,4.18,1.33,2.01,2,4.3,2,6.88,0,3.28-1.01,5.98-3.03,8.12-2.02,2.13-5.04,3.48-9.05,4.03,2,1.11,3.65,2.33,4.95,3.66,1.3,1.33,3.05,3.69,5.26,7.09l5.59,8.52h-11.05l-6.68-9.5c-2.37-3.4-4-5.53-4.87-6.42-.87-.88-1.8-1.49-2.78-1.82-.98-.33-2.53-.49-4.65-.49h-1.87v18.23h-9.24ZM413.4,199.07h6.84c4.43,0,7.2-.18,8.3-.54,1.1-.36,1.97-.97,2.59-1.85.62-.87.94-1.97.94-3.28,0-1.47-.41-2.66-1.23-3.56-.82-.9-1.98-1.47-3.48-1.71-.75-.1-3-.15-6.74-.15h-7.21v11.08Z"/>
  <path class="cls-1" d="M448.95,178.1l4.31-8.9h9.83l-8.59,8.9h-5.56ZM450.01,180.6h9.24v43.66h-9.24v-43.66Z"/>
  <path class="cls-1" d="M468.02,180.6h16.88c3.81,0,6.71.28,8.71.83,2.68.75,4.98,2.09,6.9,4.02,1.91,1.93,3.37,4.28,4.37,7.07,1,2.79,1.5,6.23,1.5,10.32,0,3.59-.47,6.69-1.4,9.29-1.14,3.18-2.78,5.75-4.9,7.71-1.6,1.49-3.77,2.65-6.49,3.48-2.04.62-4.77.92-8.18.92h-17.38v-43.66ZM477.26,187.99v28.92h6.9c2.58,0,4.44-.14,5.59-.42,1.5-.36,2.74-.96,3.73-1.82.99-.86,1.8-2.26,2.42-4.22.62-1.95.94-4.62.94-8s-.31-5.97-.94-7.77c-.62-1.81-1.5-3.22-2.62-4.23-1.13-1.01-2.55-1.7-4.28-2.06-1.29-.28-3.82-.42-7.58-.42h-4.15Z"/>
  <rect class="cls-1" x="513.93" y="180.6" width="9.24" height="43.66"/>
  <path class="cls-1" d="M561.25,208.21l8.96,2.71c-1.37,4.76-3.66,8.3-6.85,10.62-3.19,2.31-7.25,3.47-12.16,3.47-6.08,0-11.07-1.98-14.98-5.94-3.91-3.96-5.87-9.38-5.87-16.25,0-7.27,1.97-12.91,5.9-16.93,3.93-4.02,9.1-6.03,15.51-6.03,5.6,0,10.14,1.58,13.64,4.73,2.08,1.87,3.64,4.55,4.68,8.04l-9.15,2.09c-.54-2.26-1.67-4.05-3.38-5.36-1.72-1.31-3.8-1.97-6.26-1.97-3.39,0-6.14,1.16-8.25,3.48-2.11,2.32-3.17,6.09-3.17,11.29,0,5.52,1.04,9.45,3.12,11.79,2.08,2.34,4.79,3.51,8.12,3.51,2.45,0,4.57-.74,6.33-2.23,1.77-1.49,3.04-3.83,3.81-7.03"/>
  <path class="cls-1" d="M619.4,224.26h-10.05l-3.99-9.92h-18.29l-3.78,9.92h-9.8l17.82-43.66h9.77l18.32,43.66ZM602.38,206.99l-6.3-16.2-6.18,16.2h12.48Z"/>
  <polygon class="cls-1" points="653.39 224.26 653.39 180.6 687.32 180.6 687.32 187.99 662.63 187.99 662.63 197.67 685.6 197.67 685.6 205.02 662.63 205.02 662.63 216.91 688.19 216.91 688.19 224.26 653.39 224.26"/>
  <polygon class="cls-1" points="695.9 224.26 695.9 180.6 709.73 180.6 718.03 210.38 726.24 180.6 740.1 180.6 740.1 224.26 731.52 224.26 731.52 189.89 722.43 224.26 713.54 224.26 704.48 189.89 704.48 224.26 695.9 224.26"/>
  <path class="cls-1" d="M749.27,224.26v-43.66h14.83c5.62,0,9.28.22,10.99.65,2.62.66,4.82,2.08,6.59,4.27,1.77,2.19,2.65,5.03,2.65,8.5,0,2.68-.51,4.94-1.53,6.76-1.02,1.83-2.32,3.26-3.89,4.3-1.57,1.04-3.17,1.73-4.79,2.07-2.21.42-5.4.62-9.58.62h-6.02v16.47h-9.24ZM758.51,187.99v12.39h5.06c3.64,0,6.08-.23,7.3-.69,1.23-.46,2.19-1.17,2.89-2.14.69-.97,1.04-2.1,1.04-3.39,0-1.59-.49-2.9-1.47-3.93-.98-1.03-2.22-1.68-3.71-1.94-1.1-.2-3.32-.3-6.65-.3h-4.46Z"/>
  <path class="cls-1" d="M791.94,224.26v-43.66h19.44c4.89,0,8.44.39,10.66,1.18,2.22.78,3.99,2.18,5.32,4.18,1.33,2.01,2,4.3,2,6.88,0,3.28-1.01,5.98-3.03,8.12-2.02,2.13-5.04,3.48-9.05,4.03,2,1.11,3.65,2.33,4.95,3.66,1.3,1.33,3.05,3.69,5.26,7.09l5.59,8.52h-11.05l-6.68-9.5c-2.37-3.4-4-5.53-4.87-6.42-.88-.88-1.8-1.49-2.78-1.82-.98-.33-2.53-.49-4.65-.49h-1.87v18.23h-9.24ZM801.18,199.07h6.84c4.43,0,7.2-.18,8.3-.54,1.1-.36,1.97-.97,2.59-1.85.63-.87.94-1.97.94-3.28,0-1.47-.41-2.66-1.23-3.56-.82-.9-1.98-1.47-3.48-1.71-.75-.1-3-.15-6.74-.15h-7.21v11.08Z"/>
  <polygon class="cls-1" points="838.07 224.26 838.07 180.6 872 180.6 872 187.99 847.31 187.99 847.31 197.67 870.28 197.67 870.28 205.02 847.31 205.02 847.31 216.91 872.87 216.91 872.87 224.26 838.07 224.26"/>
  <path class="cls-1" d="M878.37,210.06l8.99-.84c.54,2.88,1.64,4.99,3.29,6.34,1.65,1.35,3.89,2.02,6.7,2.02,2.97,0,5.22-.6,6.73-1.8,1.51-1.2,2.26-2.61,2.26-4.21,0-1.03-.32-1.91-.95-2.64-.64-.72-1.75-1.36-3.33-1.89-1.08-.36-3.55-.99-7.4-1.91-4.95-1.17-8.43-2.61-10.42-4.32-2.81-2.4-4.21-5.33-4.21-8.79,0-2.22.66-4.3,1.98-6.24,1.32-1.93,3.22-3.41,5.71-4.42,2.49-1.01,5.49-1.52,9.01-1.52,5.74,0,10.07,1.2,12.97,3.6,2.9,2.4,4.43,5.61,4.57,9.62l-9.24.39c-.4-2.24-1.24-3.86-2.54-4.84-1.3-.98-3.25-1.47-5.85-1.47s-4.78.53-6.3,1.58c-.98.68-1.47,1.58-1.47,2.71,0,1.03.46,1.91,1.37,2.65,1.17.93,4,1.91,8.49,2.92,4.49,1.01,7.82,2.06,9.97,3.14,2.15,1.08,3.84,2.56,5.06,4.44,1.22,1.88,1.82,4.19,1.82,6.95,0,2.5-.73,4.85-2.18,7.03-1.46,2.18-3.52,3.81-6.18,4.87-2.66,1.06-5.98,1.59-9.96,1.59-5.79,0-10.23-1.28-13.33-3.83-3.1-2.55-4.95-6.27-5.56-11.15"/>
  <path class="cls-1" d="M964.61,224.26h-10.05l-3.99-9.92h-18.29l-3.78,9.92h-9.8l17.82-43.66h9.77l18.32,43.66ZM947.6,206.99l-6.3-16.2-6.18,16.2h12.49Z"/>
  <path class="cls-1" d="M969.54,224.26v-43.66h19.44c4.89,0,8.44.39,10.66,1.18,2.22.78,3.99,2.18,5.32,4.18,1.33,2.01,2,4.3,2,6.88,0,3.28-1.01,5.98-3.03,8.12-2.02,2.13-5.04,3.48-9.05,4.03,2,1.11,3.65,2.33,4.95,3.66,1.3,1.33,3.06,3.69,5.26,7.09l5.59,8.52h-11.05l-6.68-9.5c-2.37-3.4-4-5.53-4.87-6.42-.87-.88-1.8-1.49-2.78-1.82-.98-.33-2.53-.49-4.65-.49h-1.87v18.23h-9.24ZM978.78,199.07h6.83c4.43,0,7.2-.18,8.3-.54,1.1-.36,1.97-.97,2.59-1.85.62-.87.94-1.97.94-3.28,0-1.47-.41-2.66-1.23-3.56-.82-.9-1.98-1.47-3.48-1.71-.75-.1-3-.15-6.74-.15h-7.21v11.08Z"/>
  <rect class="cls-1" x="1015.39" y="180.6" width="9.24" height="43.66"/>
  <path class="cls-1" d="M1074.7,224.26h-10.05l-4-9.92h-18.29l-3.78,9.92h-9.8l17.82-43.66h9.77l18.32,43.66ZM1057.68,206.99l-6.31-16.2-6.18,16.2h12.49Z"/>
  <polygon class="cls-1" points="1079.84 224.26 1079.84 180.96 1089.08 180.96 1089.08 216.91 1112.05 216.91 1112.05 224.26 1079.84 224.26"/>
  <path class="cls-5" d="M340.89,180.45h9.21v27.64c0,3.61-.33,6.39-1,8.34-.9,2.54-2.52,4.58-4.87,6.12-2.35,1.54-5.45,2.31-9.3,2.31-4.51,0-7.99-1.21-10.42-3.62-2.43-2.41-3.66-5.95-3.68-10.62l8.71-.95c.1,2.5.49,4.27,1.16,5.3,1,1.57,2.52,2.35,4.56,2.35s3.52-.56,4.37-1.68c.85-1.12,1.28-3.45,1.28-6.98v-28.2Z"/>
  <path class="cls-5" d="M359.86,180.45h9.24v23.65c0,3.75.11,6.18.34,7.3.4,1.79,1.34,3.22,2.82,4.3,1.49,1.08,3.52,1.62,6.1,1.62s4.6-.51,5.93-1.53c1.33-1.02,2.13-2.28,2.4-3.77.27-1.49.4-3.96.4-7.42v-24.15h9.24v22.93c0,5.24-.25,8.95-.75,11.11-.5,2.16-1.42,3.99-2.76,5.48-1.34,1.49-3.14,2.68-5.39,3.56-2.25.88-5.18,1.33-8.8,1.33-4.37,0-7.68-.48-9.94-1.44-2.26-.96-4.04-2.21-5.35-3.75-1.31-1.54-2.17-3.15-2.59-4.84-.6-2.5-.9-6.19-.9-11.08v-23.29Z"/>
  <path class="cls-5" d="M406.12,224.11v-43.66h19.44c4.89,0,8.44.39,10.66,1.18,2.22.78,3.99,2.18,5.32,4.18,1.33,2.01,2,4.3,2,6.88,0,3.28-1.01,5.98-3.03,8.12-2.02,2.13-5.04,3.48-9.05,4.04,2,1.11,3.64,2.33,4.95,3.66,1.3,1.33,3.05,3.69,5.26,7.09l5.59,8.52h-11.05l-6.68-9.5c-2.37-3.4-4-5.53-4.87-6.42-.87-.88-1.8-1.49-2.78-1.82-.98-.33-2.53-.49-4.65-.49h-1.87v18.23h-9.24ZM415.36,198.91h6.84c4.43,0,7.2-.18,8.3-.54,1.1-.36,1.97-.97,2.59-1.85.62-.87.94-1.97.94-3.28,0-1.47-.41-2.66-1.23-3.56-.82-.9-1.98-1.47-3.48-1.71-.75-.1-3-.15-6.74-.15h-7.21v11.08Z"/>
  <path class="cls-5" d="M450.91,177.95l4.31-8.9h9.83l-8.58,8.9h-5.56ZM451.97,180.45h9.24v43.66h-9.24v-43.66Z"/>
  <path class="cls-5" d="M469.98,180.45h16.88c3.81,0,6.71.28,8.71.83,2.68.75,4.98,2.09,6.9,4.02,1.91,1.93,3.37,4.28,4.37,7.07,1,2.79,1.5,6.23,1.5,10.32,0,3.59-.47,6.69-1.4,9.29-1.14,3.18-2.78,5.75-4.9,7.71-1.6,1.49-3.77,2.65-6.49,3.49-2.04.62-4.77.92-8.18.92h-17.39v-43.66ZM479.22,187.83v28.92h6.9c2.58,0,4.44-.14,5.59-.42,1.5-.36,2.74-.96,3.73-1.82.99-.85,1.8-2.26,2.42-4.22.62-1.95.94-4.62.94-8s-.31-5.97-.94-7.77c-.62-1.81-1.5-3.22-2.62-4.23-1.13-1.01-2.55-1.7-4.27-2.06-1.29-.28-3.82-.42-7.59-.42h-4.15Z"/>
  <rect class="cls-5" x="515.89" y="180.45" width="9.24" height="43.66"/>
  <path class="cls-5" d="M563.21,208.06l8.96,2.71c-1.37,4.76-3.66,8.31-6.85,10.62-3.2,2.31-7.25,3.47-12.16,3.47-6.07,0-11.07-1.98-14.98-5.94-3.91-3.96-5.87-9.38-5.87-16.25,0-7.27,1.97-12.91,5.9-16.93,3.93-4.02,9.1-6.03,15.52-6.03,5.6,0,10.14,1.58,13.64,4.74,2.08,1.87,3.64,4.55,4.68,8.04l-9.15,2.09c-.54-2.26-1.67-4.05-3.38-5.36-1.72-1.31-3.8-1.97-6.26-1.97-3.39,0-6.14,1.16-8.25,3.48-2.11,2.32-3.17,6.09-3.17,11.29,0,5.52,1.04,9.45,3.12,11.79,2.08,2.34,4.79,3.51,8.12,3.51,2.45,0,4.56-.75,6.33-2.23,1.77-1.49,3.04-3.83,3.81-7.03"/>
  <path class="cls-5" d="M621.36,224.11h-10.05l-3.99-9.92h-18.29l-3.78,9.92h-9.8l17.82-43.66h9.77l18.32,43.66ZM604.35,206.84l-6.3-16.2-6.18,16.2h12.48Z"/>
  <polygon class="cls-5" points="655.35 224.11 655.35 180.45 689.28 180.45 689.28 187.83 664.59 187.83 664.59 197.51 687.56 197.51 687.56 204.87 664.59 204.87 664.59 216.75 690.15 216.75 690.15 224.11 655.35 224.11"/>
  <polygon class="cls-5" points="697.86 224.11 697.86 180.45 711.69 180.45 719.99 210.23 728.2 180.45 742.06 180.45 742.06 224.11 733.48 224.11 733.48 189.74 724.39 224.11 715.5 224.11 706.45 189.74 706.45 224.11 697.86 224.11"/>
  <path class="cls-5" d="M751.24,224.11v-43.66h14.83c5.62,0,9.28.22,10.99.65,2.62.66,4.82,2.08,6.59,4.27,1.77,2.19,2.65,5.03,2.65,8.5,0,2.68-.51,4.94-1.53,6.76-1.02,1.83-2.32,3.26-3.89,4.3-1.57,1.04-3.17,1.73-4.79,2.07-2.21.42-5.4.62-9.58.62h-6.02v16.47h-9.24ZM760.48,187.83v12.39h5.06c3.64,0,6.08-.23,7.3-.69,1.23-.46,2.19-1.17,2.89-2.14.69-.97,1.04-2.1,1.04-3.39,0-1.59-.49-2.9-1.47-3.93-.98-1.03-2.22-1.68-3.71-1.94-1.1-.2-3.32-.3-6.65-.3h-4.46Z"/>
  <path class="cls-5" d="M793.91,224.11v-43.66h19.44c4.89,0,8.44.39,10.66,1.18,2.22.78,3.99,2.18,5.32,4.18,1.33,2.01,2,4.3,2,6.88,0,3.28-1.01,5.98-3.03,8.12-2.02,2.13-5.04,3.48-9.05,4.04,2,1.11,3.65,2.33,4.95,3.66,1.3,1.33,3.05,3.69,5.26,7.09l5.59,8.52h-11.05l-6.68-9.5c-2.37-3.4-4-5.53-4.87-6.42-.88-.88-1.8-1.49-2.78-1.82-.98-.33-2.53-.49-4.65-.49h-1.87v18.23h-9.24ZM803.14,198.91h6.83c4.43,0,7.2-.18,8.3-.54,1.1-.36,1.97-.97,2.59-1.85.63-.87.94-1.97.94-3.28,0-1.47-.41-2.66-1.23-3.56-.82-.9-1.98-1.47-3.48-1.71-.75-.1-3-.15-6.74-.15h-7.21v11.08Z"/>
  <polygon class="cls-5" points="840.04 224.11 840.04 180.45 873.96 180.45 873.96 187.83 849.27 187.83 849.27 197.51 872.25 197.51 872.25 204.87 849.27 204.87 849.27 216.75 874.84 216.75 874.84 224.11 840.04 224.11"/>
  <path class="cls-5" d="M880.33,209.9l8.99-.83c.54,2.88,1.64,4.99,3.29,6.34,1.65,1.35,3.89,2.03,6.7,2.03,2.98,0,5.22-.6,6.73-1.8,1.51-1.2,2.26-2.61,2.26-4.21,0-1.03-.32-1.91-.95-2.64-.63-.72-1.74-1.36-3.32-1.89-1.08-.36-3.55-.99-7.4-1.91-4.95-1.17-8.43-2.61-10.42-4.32-2.81-2.4-4.21-5.33-4.21-8.79,0-2.22.66-4.3,1.98-6.24,1.32-1.93,3.23-3.41,5.71-4.42,2.49-1.01,5.49-1.52,9.01-1.52,5.74,0,10.07,1.2,12.97,3.6,2.9,2.4,4.43,5.61,4.57,9.62l-9.24.39c-.4-2.24-1.24-3.86-2.55-4.84-1.3-.98-3.25-1.47-5.85-1.47s-4.79.53-6.31,1.58c-.98.68-1.47,1.58-1.47,2.71,0,1.03.46,1.91,1.37,2.65,1.17.93,4,1.91,8.49,2.92,4.49,1.01,7.82,2.06,9.97,3.14,2.15,1.08,3.84,2.56,5.06,4.44,1.22,1.88,1.82,4.19,1.82,6.95,0,2.5-.73,4.85-2.18,7.03-1.46,2.18-3.52,3.81-6.18,4.87-2.66,1.06-5.98,1.59-9.96,1.59-5.79,0-10.23-1.28-13.33-3.83-3.1-2.55-4.95-6.27-5.56-11.16"/>
  <path class="cls-5" d="M966.57,224.11h-10.05l-4-9.92h-18.29l-3.78,9.92h-9.8l17.82-43.66h9.77l18.32,43.66ZM949.56,206.84l-6.3-16.2-6.18,16.2h12.49Z"/>
  <path class="cls-5" d="M971.5,224.11v-43.66h19.44c4.89,0,8.44.39,10.66,1.18,2.22.78,3.99,2.18,5.32,4.18,1.33,2.01,2,4.3,2,6.88,0,3.28-1.01,5.98-3.03,8.12-2.02,2.13-5.04,3.48-9.05,4.04,2,1.11,3.65,2.33,4.95,3.66,1.3,1.33,3.05,3.69,5.26,7.09l5.59,8.52h-11.05l-6.68-9.5c-2.37-3.4-4-5.53-4.87-6.42-.87-.88-1.8-1.49-2.78-1.82-.98-.33-2.53-.49-4.65-.49h-1.87v18.23h-9.24ZM980.74,198.91h6.83c4.43,0,7.2-.18,8.3-.54,1.1-.36,1.97-.97,2.59-1.85.62-.87.94-1.97.94-3.28,0-1.47-.41-2.66-1.23-3.56-.82-.9-1.98-1.47-3.48-1.71-.75-.1-3-.15-6.74-.15h-7.21v11.08Z"/>
  <rect class="cls-5" x="1017.35" y="180.45" width="9.24" height="43.66"/>
  <path class="cls-5" d="M1076.66,224.11h-10.05l-4-9.92h-18.29l-3.78,9.92h-9.8l17.82-43.66h9.77l18.32,43.66ZM1059.65,206.84l-6.3-16.2-6.18,16.2h12.49Z"/>
  <polygon class="cls-5" points="1081.81 224.11 1081.81 180.81 1091.05 180.81 1091.05 216.75 1114.02 216.75 1114.02 224.11 1081.81 224.11"/>
  <path class="cls-4" d="M927.77,17.97c0,1.81-.32,3.59-.97,5.33-.65,1.75-1.54,3.31-2.68,4.69-1.14,1.38-2.5,2.49-4.07,3.33-1.58.84-3.31,1.26-5.21,1.26-2.72,0-4.88-.8-6.5-2.39-1.62-1.59-2.42-3.75-2.42-6.47,0-2.15.47-4.24,1.42-6.27.95-2.03,2.24-3.92,3.88-5.69,1.64-1.77,3.56-3.37,5.75-4.82,2.2-1.44,4.55-2.68,7.05-3.72,2.5-1.03,5.1-1.83,7.79-2.39,2.69-.56,5.33-.84,7.92-.84,1.85,0,3.76.15,5.72.45,1.96.3,3.65.82,5.08,1.55.43-.17.93-.37,1.49-.58.56-.22,1.15-.42,1.78-.61.62-.19,1.24-.37,1.84-.52.6-.15,1.16-.25,1.68-.29l.06.39c-1.03.13-2.06.39-3.07.78-1.01.39-1.95.82-2.81,1.29,3.28,1.85,4.91,4.53,4.91,8.02,0,2.29-.44,4.24-1.33,5.85-.88,1.62-2.05,2.93-3.49,3.95-1.44,1.01-3.09,1.75-4.95,2.2-1.85.45-3.75.68-5.69.68v.13c1.34.56,2.34,1.3,3.01,2.23.67.93,1,2.12,1,3.59,0,.95-.2,2.11-.61,3.49-.41,1.38-.87,2.8-1.39,4.27-.52,1.42-.99,2.79-1.42,4.11-.43,1.32-.65,2.4-.65,3.26,0,1.38.62,2.07,1.87,2.07s2.79-.44,4.49-1.33c1.7-.88,3.5-2.25,5.4-4.11,3.32-3.23,6.44-7.18,9.38-11.83l.58.26c-.99,1.55-2.17,3.29-3.52,5.2-1.36,1.92-3.01,3.87-4.95,5.85-4.27,4.48-8.21,6.72-11.83,6.72-1.51,0-2.71-.37-3.59-1.1-.88-.73-1.33-1.83-1.33-3.3,0-.95.25-2.09.74-3.43.49-1.34,1.04-2.71,1.65-4.14.6-1.42,1.14-2.84,1.62-4.27.47-1.42.71-2.67.71-3.75,0-1.64-.44-2.72-1.33-3.23-.88-.52-2.04-.88-3.46-1.1l.26-.65c.47.09.93.15,1.36.19.43.04.88.07,1.36.07,1.9,0,3.62-.36,5.17-1.07,1.55-.71,2.88-1.68,3.98-2.91,1.1-1.23,1.95-2.66,2.55-4.3.6-1.64.91-3.38.91-5.24,0-1.08-.21-2.11-.61-3.1-.41-.99-1.03-1.79-1.84-2.39-2.2,1.29-4.3,3.27-6.3,5.92-2,2.65-4.01,5.6-6.01,8.86-2,3.26-4.05,6.58-6.14,9.99-2.09,3.41-4.3,6.52-6.63,9.34-2.33,2.82-4.81,5.13-7.44,6.92-2.63,1.79-5.5,2.68-8.6,2.68-.69,0-1.4-.09-2.13-.26-.73-.17-1.39-.44-1.97-.81-.58-.37-1.07-.84-1.45-1.42-.39-.58-.58-1.26-.58-2.04s.24-1.4.71-1.88c.47-.47,1.12-.71,1.94-.71.6,0,1.09.19,1.46.58.36.39.55.86.55,1.42,0,.52-.15,1.01-.45,1.49-.3.48-.76.69-1.36.65.13.56.58,1.07,1.36,1.52.78.45,1.66.68,2.65.68,2.24,0,4.34-.87,6.3-2.62,1.96-1.75,3.9-4,5.82-6.76,1.92-2.76,3.84-5.82,5.75-9.18,1.92-3.36,3.97-6.66,6.14-9.89,2.18-3.23,4.53-6.21,7.05-8.92,2.52-2.71,5.31-4.8,8.37-6.27-1.42-.73-3.02-1.23-4.78-1.49-1.77-.26-3.49-.39-5.17-.39-2.15,0-4.43.24-6.82.71-2.39.48-4.74,1.16-7.05,2.07-2.31.91-4.52,2.03-6.63,3.36-2.11,1.34-3.97,2.88-5.56,4.62-1.59,1.75-2.87,3.66-3.81,5.75-.95,2.09-1.42,4.36-1.42,6.82s.58,4.25,1.75,5.62c1.16,1.38,2.8,2.07,4.91,2.07,1.85,0,3.52-.43,5.01-1.29,1.49-.86,2.76-1.96,3.82-3.3,1.05-1.33,1.86-2.82,2.42-4.46.56-1.64.84-3.23.84-4.79h.78Z"/>
  <path class="cls-4" d="M984.34,29.29c-.65,1.08-1.46,2.26-2.42,3.56-.97,1.29-2.07,2.58-3.3,3.85-1.23,1.27-2.54,2.5-3.95,3.69-1.4,1.18-2.86,2.24-4.36,3.17-1.51.93-3.03,1.66-4.56,2.2-1.53.54-3.03.81-4.49.81-1.81,0-3.21-.46-4.2-1.39-.99-.93-1.49-2.25-1.49-3.98,0-1.9.57-3.89,1.71-5.98,1.14-2.09,2.6-4.02,4.36-5.79,1.77-1.77,3.71-3.23,5.82-4.4,2.11-1.16,4.14-1.75,6.08-1.75,1.08,0,1.92.23,2.52.68.6.45.91,1.11.91,1.97,0,1.03-.56,2.04-1.68,3.01-1.12.97-2.49,1.85-4.11,2.65-1.62.8-3.35,1.51-5.21,2.13-1.85.63-3.49,1.09-4.91,1.39-.47.86-.86,1.83-1.16,2.91-.3,1.08-.45,2.16-.45,3.23,0,.52.05,1.02.16,1.52.11.5.28.95.52,1.36.24.41.56.74.97,1,.41.26.92.39,1.52.39,1.42,0,3.09-.46,5.01-1.39,1.92-.93,3.87-2.17,5.85-3.72,1.98-1.55,3.88-3.32,5.69-5.3,1.81-1.98,3.36-4.03,4.66-6.14l.52.32ZM973.87,25.86c0-.6-.16-1.06-.49-1.36-.32-.3-.72-.45-1.2-.45-.91,0-1.89.36-2.94,1.07-1.06.71-2.1,1.59-3.14,2.65-1.04,1.06-1.97,2.19-2.81,3.4-.84,1.21-1.48,2.28-1.91,3.23.95-.17,2.13-.51,3.56-1,1.42-.5,2.79-1.11,4.11-1.84,1.31-.73,2.45-1.58,3.39-2.55.95-.97,1.42-2.01,1.42-3.13"/>
  <path class="cls-4" d="M990.94,23.79c-.82,1.08-1.85,2.44-3.1,4.07-1.25,1.64-2.47,3.35-3.65,5.14-1.19,1.79-2.21,3.57-3.07,5.33-.86,1.77-1.29,3.3-1.29,4.59,0,.78.24,1.44.71,2,.47.56,1.27.84,2.39.84,1.68,0,3.41-.67,5.17-2.01,1.77-1.33,3.38-2.96,4.85-4.88,1.46-1.92,2.67-3.9,3.62-5.95.95-2.05,1.42-3.78,1.42-5.21,0-.34-.09-.71-.26-1.1-.17-.39-.26-.82-.26-1.29,0-.52.15-.99.45-1.42.3-.43.73-.65,1.29-.65.6,0,1.13.35,1.58,1.03.45.69.68,1.87.68,3.56,0,.47-.03.92-.1,1.33-.06.41-.12.81-.16,1.2.47.65,1.16,1.17,2.07,1.58.91.41,1.79.61,2.65.61,1.12,0,2.32-.29,3.59-.87,1.27-.58,2.32-1.54,3.13-2.88l.52.32c-.3.65-.72,1.23-1.26,1.75-.54.52-1.13.96-1.78,1.33-.65.37-1.34.65-2.07.84-.73.19-1.47.29-2.2.29-.95,0-1.85-.2-2.72-.61-.86-.41-1.6-.87-2.2-1.39-.52,1.68-1.43,3.42-2.75,5.2-1.32,1.79-2.84,3.43-4.56,4.91-1.72,1.49-3.57,2.71-5.53,3.65-1.96.95-3.89,1.42-5.79,1.42s-3.2-.42-4.17-1.26c-.97-.84-1.45-2.23-1.45-4.17,0-1.29.4-2.7,1.2-4.23.8-1.53,1.74-3.08,2.81-4.66,1.08-1.57,2.18-3.09,3.3-4.56,1.12-1.47,2.03-2.76,2.72-3.88h4.2Z"/>
  <path class="cls-4" d="M1019.71,23.79c-2.37,3.41-4.38,6.27-6.01,8.6-1.64,2.33-2.96,4.27-3.98,5.82-1.01,1.55-1.75,2.78-2.2,3.69-.45.91-.68,1.64-.68,2.2,0,1.12.45,1.68,1.36,1.68s1.86-.31,3.01-.94c1.14-.62,2.34-1.43,3.59-2.43,1.25-.99,2.5-2.11,3.75-3.36,1.25-1.25,2.43-2.49,3.52-3.72,1.1-1.23,2.07-2.41,2.91-3.56.84-1.14,1.46-2.08,1.84-2.81l.52.33c-.52.86-1.22,1.9-2.1,3.1-.88,1.21-1.89,2.45-3.01,3.72-1.12,1.27-2.31,2.53-3.56,3.78-1.25,1.25-2.52,2.37-3.82,3.36-1.29.99-2.55,1.79-3.78,2.39-1.23.6-2.36.91-3.39.91-1.16,0-2.03-.32-2.59-.97-.56-.65-.84-1.36-.84-2.13,0-.91.21-1.86.61-2.88.41-1.01,1.07-2.25,1.97-3.72.91-1.47,2.08-3.24,3.52-5.33,1.45-2.09,3.18-4.67,5.21-7.73h4.14ZM1023.46,11.77c.6,0,1.1.2,1.49.61.39.41.58.92.58,1.52s-.2,1.11-.58,1.52c-.39.41-.88.61-1.49.61s-1.1-.2-1.49-.61c-.39-.41-.58-.92-.58-1.52s.19-1.11.58-1.52.88-.61,1.49-.61"/>
  <path class="cls-4" d="M1048.74,29.35c-1.29,2.07-2.79,4.13-4.49,6.17-1.7,2.05-3.57,3.89-5.59,5.53-2.03,1.64-4.24,2.96-6.63,3.98-2.39,1.01-4.95,1.52-7.66,1.52-1.04,0-2.01-.13-2.91-.39-.91-.26-1.69-.65-2.36-1.16-.67-.52-1.21-1.17-1.62-1.97-.41-.8-.62-1.74-.62-2.81s.37-2.13,1.1-3.04c.73-.91,1.72-1.36,2.97-1.36.65,0,1.17.16,1.59.48.41.33.61.81.61,1.46,0,.6-.15,1.12-.45,1.55-.3.43-.76.65-1.36.65-.47,0-.85-.13-1.13-.39-.28-.26-.46-.58-.55-.97-.47.26-.8.64-.97,1.13-.17.5-.26,1-.26,1.52,0,1.51.57,2.64,1.71,3.39,1.14.76,2.43,1.13,3.85,1.13.91,0,1.69-.18,2.36-.55.67-.37,1.23-.84,1.68-1.42.45-.58.79-1.26,1-2.04.21-.78.32-1.55.32-2.33,0-.82-.14-1.67-.42-2.55-.28-.88-.59-1.76-.94-2.62-.35-.86-.67-1.71-.97-2.55-.3-.84-.45-1.63-.45-2.36,0-.95.19-1.8.58-2.55.39-.75.92-1.39,1.58-1.91.67-.52,1.43-.92,2.3-1.2.86-.28,1.77-.42,2.72-.42,1.72,0,3.12.38,4.2,1.13,1.08.75,1.62,1.76,1.62,3.01,0,1.12-.42,1.94-1.26,2.46-.84.52-1.78.78-2.81.78.26-.47.49-1.04.68-1.71.19-.67.29-1.28.29-1.84,0-.86-.27-1.58-.81-2.17-.54-.58-1.3-.87-2.29-.87-1.25,0-2.18.38-2.78,1.13-.6.75-.91,1.67-.91,2.75,0,.95.16,1.85.49,2.72.32.86.7,1.72,1.13,2.59.39.86.74,1.75,1.07,2.65.32.91.49,1.92.49,3.04,0,.82-.18,1.61-.55,2.36-.37.75-.85,1.44-1.46,2.07-.6.62-1.28,1.15-2.04,1.58-.75.43-1.52.71-2.3.84l.13.13c2.33-.26,4.55-.94,6.66-2.04,2.11-1.1,4.08-2.43,5.92-4.01,1.83-1.57,3.52-3.3,5.08-5.17,1.55-1.87,2.91-3.72,4.07-5.53l.39.19Z"/>
  <path class="cls-4" d="M1059.73,16.29l-5.11,7.5h8.53l-.39.78h-8.66c-1.72,2.8-3.27,5.23-4.62,7.27-1.36,2.05-2.5,3.81-3.43,5.3-.93,1.49-1.63,2.74-2.1,3.75-.47,1.01-.71,1.91-.71,2.68,0,.82.28,1.39.84,1.71.56.32,1.21.49,1.94.49,1.55,0,3.26-.59,5.14-1.78,1.88-1.19,3.74-2.64,5.59-4.37,1.85-1.72,3.62-3.56,5.3-5.5,1.68-1.94,3.1-3.69,4.27-5.24l.39.26c-1.47,1.85-3.07,3.8-4.82,5.85-1.75,2.05-3.55,3.92-5.4,5.62-1.85,1.7-3.72,3.12-5.59,4.24-1.87,1.12-3.65,1.68-5.33,1.68-1.34,0-2.49-.41-3.46-1.23-.97-.82-1.46-1.96-1.46-3.43,0-.99.28-2.1.84-3.33.56-1.23,1.29-2.55,2.2-3.98.91-1.42,1.93-2.97,3.07-4.66,1.14-1.68,2.32-3.47,3.52-5.37h-3.49l.39-.78h3.62l5.04-7.5h3.88Z"/>
  <path class="cls-4" d="M1083.59,23.79h4.2c-1.59,2.24-3.13,4.42-4.59,6.53-1.46,2.11-2.77,4.06-3.91,5.85-1.14,1.79-2.06,3.36-2.75,4.72-.69,1.36-1.03,2.43-1.03,3.2,0,1.12.58,1.68,1.75,1.68.91,0,2.06-.44,3.46-1.33,1.4-.88,2.92-2.1,4.56-3.65,1.64-1.55,3.32-3.36,5.04-5.43,1.72-2.07,3.36-4.27,4.91-6.59l.39.13c-1.16,1.77-2.53,3.68-4.11,5.72-1.57,2.05-3.22,3.95-4.95,5.72-1.72,1.77-3.45,3.24-5.17,4.43-1.72,1.19-3.34,1.78-4.85,1.78-1.25,0-2.16-.31-2.75-.94-.58-.62-.87-1.37-.87-2.23,0-.6.1-1.2.29-1.78.19-.58.4-1.17.61-1.78l-.13-.06c-.56.6-1.26,1.3-2.1,2.1-.84.8-1.75,1.54-2.72,2.23-.97.69-1.97,1.27-3.01,1.75-1.03.47-2.03.71-2.97.71-1.59,0-2.71-.5-3.36-1.49-.65-.99-.97-2.11-.97-3.36,0-1.77.56-3.72,1.68-5.85,1.12-2.13,2.54-4.14,4.27-6.01,1.72-1.87,3.6-3.44,5.62-4.69,2.03-1.25,3.94-1.87,5.75-1.87.86,0,1.62.12,2.26.36.65.24,1.18.56,1.62.97.43.41.76.87,1,1.39.24.52.42,1.06.55,1.62h.13l2.13-3.82ZM1062.44,41.9c0,.99.2,1.76.61,2.3.41.54.98.81,1.71.81s1.59-.27,2.59-.81c.99-.54,2.03-1.26,3.1-2.17,1.08-.91,2.14-1.95,3.2-3.14,1.06-1.19,1.99-2.45,2.81-3.78.82-1.34,1.49-2.69,2-4.07.52-1.38.78-2.69.78-3.95,0-.99-.28-1.75-.84-2.26-.56-.52-1.25-.78-2.07-.78-1.29,0-2.74.56-4.33,1.68-1.59,1.12-3.1,2.55-4.53,4.3-1.42,1.74-2.62,3.67-3.59,5.79-.97,2.11-1.45,4.14-1.45,6.08"/>
  <path class="cls-3" d="M14.92,202.97c-26.5-50.17,2.58-115.88,64.74-146.28,62.16-30.39,134.47-14.27,160.97,35.91,26.5,50.17-2.58,115.88-64.74,146.28-62.16,30.4-134.47,14.27-160.97-35.9M14.83,203.01c23.76,44.99,93.83,56.91,155.96,26.52,62.13-30.38,93.42-91.86,69.66-136.85-23.76-44.99-93.82-56.91-155.96-26.52C22.36,96.55-8.94,158.02,14.83,203.01M14.97,202.95c15.01,28.42,77.91,26.84,140-3.53,62.1-30.37,100.5-78.31,85.48-106.74-15.01-28.42-77.9-26.84-140,3.53C38.35,126.58-.05,174.52,14.97,202.95M14.97,202.95c11.53,21.83,71.58,14.87,133.68-15.5,62.1-30.37,103.34-72.93,91.8-94.77-11.53-21.83-71.58-14.87-133.67,15.5C44.68,138.55,3.44,181.12,14.97,202.95M16.6,206.03c.48.91,1.61,1.29,2.51.85l221.85-108.49c.9-.44,1.24-1.54.76-2.45l-3.26-6.18c-.48-.91-1.61-1.29-2.51-.85L14.1,197.41c-.9.44-1.24,1.54-.76,2.45l3.26,6.18ZM68.32,36.36C6.01,66.84-18.12,142.22,14.61,204.18c32.73,61.96,110.24,87.64,172.56,57.17,62.31-30.47,86.44-105.86,53.71-167.82C208.15,31.58,130.63,5.89,68.32,36.36M68.33,36.39C17.83,61.08,3.37,131.82,36.13,193.84c32.76,62.03,100.67,92.47,151.17,67.78,50.5-24.69,64.97-95.43,32.2-157.45C186.74,42.14,118.83,11.69,68.33,36.39M68.28,36.3C23,58.44,12.77,127.07,45.52,189.07c32.75,62,96.4,94.51,141.69,72.36,45.29-22.14,55.51-90.78,22.76-152.78C177.22,46.66,113.57,14.15,68.28,36.3M68.36,36.43c-28.61,13.99-25.25,75.94,7.48,137.9,32.73,61.96,82.76,101.09,111.37,87.1,28.61-13.99,25.25-75.94-7.48-137.9C146.99,61.57,96.96,22.44,68.36,36.43M68.36,36.43c-21.97,10.75-13.2,70.05,19.53,132.01,32.73,61.96,77.35,103.74,99.32,92.99,21.97-10.74,13.2-70.05-19.53-132.01-32.73-61.96-77.35-103.74-99.32-93M65.25,37.95c-.91.45-1.27,1.55-.8,2.44l116.94,221.39c.47.9,1.61,1.27,2.52.82l6.22-3.04c.91-.45,1.27-1.55.8-2.44L73.99,35.73c-.47-.9-1.61-1.27-2.52-.82l-6.22,3.04Z"/>
</svg>