<?xml version="1.0" encoding="UTF-8"?>
<svg id="Capa_1" data-name="Capa 1" xmlns="http://www.w3.org/2000/svg" viewBox="0 0 1587 138">
  <defs>
    <style>
      .cls-1 {
        fill-rule: evenodd;
      }

      .cls-1, .cls-2 {
        fill: #fff;
        stroke-width: 0px;
      }
    </style>
  </defs>
  <path class="cls-2" d="M166.21,68.02c0-19.89,13.15-31.43,28.3-31.43,7.75,0,14,3.65,18.03,7.78l-7.15,8.69c-3.01-2.8-6.24-4.77-10.58-4.77-8.22,0-14.72,7.25-14.72,19.27s5.73,19.49,14.5,19.49c4.92,0,8.8-2.42,11.73-5.61l7.15,8.51c-4.98,5.79-11.6,8.8-19.36,8.8-15.21,0-27.9-10.54-27.9-30.74Z"/>
  <path class="cls-2" d="M222.59,37.69h37.57v11.37h-24.01v12.04h20.44v11.37h-20.44v13.81h24.93v11.37h-38.49v-59.96Z"/>
  <path class="cls-2" d="M273,37.69h13.89l15.64,29.82,5.93,13.17h.37c-.64-6.34-1.73-14.74-1.73-21.81v-21.18h12.92v59.96h-13.89l-15.64-29.9-5.93-13.1h-.37c.64,6.61,1.73,14.65,1.73,21.71v21.28h-12.92v-59.96Z"/>
  <path class="cls-2" d="M345.91,49.06h-16.5v-11.37h46.56v11.37h-16.5v48.59h-13.56v-48.59Z"/>
  <path class="cls-2" d="M385.33,37.69h21.59c12.72,0,23.14,4.42,23.14,18.67s-10.42,19.71-23.14,19.71h-8.04v21.58h-13.56v-59.96ZM405.82,65.31c7.13,0,10.96-3.05,10.96-8.95s-3.83-7.91-10.96-7.91h-6.93v16.86h6.93ZM404.45,72.5l9.38-8.67,19.14,33.82h-15.17l-13.34-25.15Z"/>
  <path class="cls-2" d="M438.89,67.41c0-19.59,11.06-30.82,27.23-30.82s27.23,11.31,27.23,30.82-11.06,31.34-27.23,31.34-27.23-11.75-27.23-31.34ZM479.47,67.41c0-12.02-5.16-19.12-13.34-19.12s-13.34,7.1-13.34,19.12,5.16,19.64,13.34,19.64,13.34-7.62,13.34-19.64Z"/>
  <path class="cls-2" d="M517.45,87.91l9.21-6.85c2.22,4.12,5.29,6,8.35,6,4.85,0,7.47-2.48,7.47-10.47v-38.88h13.56v40.01c0,11.54-5.99,21.05-19.23,21.05-9.17,0-15.2-3.58-19.35-10.85Z"/>
  <path class="cls-2" d="M569.55,69.87v-32.17h13.56v33.56c0,11.74,3.7,15.8,10.41,15.8s10.62-4.06,10.62-15.8v-33.56h13.07v32.17c0,20.13-8.18,28.89-23.69,28.89s-23.96-8.76-23.96-28.89Z"/>
  <path class="cls-2" d="M631.06,37.69h21.59c12.72,0,23.14,4.42,23.14,18.67s-10.42,19.71-23.14,19.71h-8.04v21.58h-13.56v-59.96ZM651.55,65.31c7.13,0,10.96-3.05,10.96-8.95s-3.83-7.91-10.96-7.91h-6.93v16.86h6.93ZM650.18,72.5l9.38-8.67,19.14,33.82h-15.17l-13.34-25.15Z"/>
  <path class="cls-2" d="M687.29,28.29l15.71-12.86,7.18,8.73-16.9,10.91-5.99-6.78ZM687.46,37.69h13.56v59.96h-13.56v-59.96Z"/>
  <path class="cls-2" d="M715.15,37.69h16.95c18.31,0,30.11,9.11,30.11,29.72s-11.8,30.24-29.35,30.24h-17.71v-59.96ZM731.28,86.74c10.17,0,17.04-4.99,17.04-19.33s-6.87-18.81-17.04-18.81h-2.57v38.13h2.57Z"/>
  <path class="cls-2" d="M773.57,37.69h13.56v59.96h-13.56v-59.96Z"/>
  <path class="cls-2" d="M798.42,68.02c0-19.89,13.15-31.43,28.3-31.43,7.75,0,13.99,3.65,18.03,7.78l-7.15,8.69c-3.01-2.8-6.24-4.77-10.58-4.77-8.22,0-14.71,7.25-14.71,19.27s5.73,19.49,14.5,19.49c4.92,0,8.8-2.42,11.73-5.61l7.15,8.51c-4.98,5.79-11.6,8.8-19.36,8.8-15.21,0-27.9-10.54-27.9-30.74Z"/>
  <path class="cls-2" d="M848.56,67.41c0-19.59,11.06-30.82,27.23-30.82s27.23,11.31,27.23,30.82-11.06,31.34-27.23,31.34-27.23-11.75-27.23-31.34ZM889.14,67.41c0-12.02-5.16-19.12-13.34-19.12s-13.34,7.1-13.34,19.12,5.16,19.64,13.34,19.64,13.34-7.62,13.34-19.64Z"/>
  <path class="cls-2" d="M932.73,37.69h13.56v59.96h-13.56v-59.96Z"/>
  <path class="cls-2" d="M960.42,37.69h13.89l15.64,29.82,5.93,13.17h.37c-.64-6.34-1.73-14.74-1.73-21.81v-21.18h12.92v59.96h-13.89l-15.64-29.9-5.93-13.1h-.37c.64,6.61,1.73,14.65,1.73,21.71v21.28h-12.92v-59.96Z"/>
  <path class="cls-2" d="M1033.33,49.06h-16.5v-11.37h46.56v11.37h-16.5v48.59h-13.56v-48.59Z"/>
  <path class="cls-2" d="M1072.75,37.69h37.57v11.37h-24.01v12.04h20.44v11.37h-20.44v13.81h24.93v11.37h-38.49v-59.96Z"/>
  <path class="cls-2" d="M1123.16,37.69h21.59c12.72,0,23.14,4.42,23.14,18.67s-10.42,19.71-23.14,19.71h-8.04v21.58h-13.56v-59.96ZM1143.65,65.31c7.13,0,10.96-3.05,10.96-8.95s-3.83-7.91-10.96-7.91h-6.93v16.86h6.93ZM1142.28,72.5l9.38-8.67,19.14,33.82h-15.17l-13.34-25.15Z"/>
  <path class="cls-2" d="M1179.56,37.69h13.89l15.64,29.82,5.93,13.17h.37c-.64-6.34-1.73-14.74-1.73-21.81v-21.18h12.92v59.96h-13.89l-15.64-29.9-5.93-13.1h-.37c.64,6.61,1.73,14.65,1.73,21.71v21.28h-12.92v-59.96Z"/>
  <path class="cls-2" d="M1251.9,37.69h16.22l18.83,59.96h-14.35l-7.84-30.37c-1.67-6-3.27-13.08-4.87-19.34h-.37c-1.45,6.33-3.05,13.34-4.72,19.34l-7.88,30.37h-13.86l18.83-59.96ZM1245.48,72.83h28.85v10.54h-28.85v-10.54Z"/>
  <path class="cls-2" d="M1289.7,68.02c0-19.89,13.15-31.43,28.3-31.43,7.75,0,13.99,3.65,18.03,7.78l-7.15,8.69c-3.01-2.8-6.24-4.77-10.58-4.77-8.22,0-14.71,7.25-14.71,19.27s5.73,19.49,14.5,19.49c4.92,0,8.8-2.42,11.73-5.61l7.15,8.51c-4.98,5.79-11.6,8.8-19.36,8.8-15.21,0-27.9-10.54-27.9-30.74Z"/>
  <path class="cls-2" d="M1346.08,37.69h13.56v59.96h-13.56v-59.96Z"/>
  <path class="cls-2" d="M1370.93,67.41c0-19.59,11.06-30.82,27.23-30.82s27.23,11.31,27.23,30.82-11.06,31.34-27.23,31.34-27.23-11.75-27.23-31.34ZM1411.51,67.41c0-12.02-5.16-19.12-13.34-19.12s-13.34,7.1-13.34,19.12,5.16,19.64,13.34,19.64,13.34-7.62,13.34-19.64Z"/>
  <path class="cls-2" d="M1436.7,37.69h13.89l15.64,29.82,5.93,13.17h.37c-.64-6.34-1.73-14.74-1.73-21.81v-21.18h12.92v59.96h-13.89l-15.64-29.9-5.93-13.1h-.37c.64,6.61,1.73,14.65,1.73,21.71v21.28h-12.92v-59.96Z"/>
  <path class="cls-2" d="M1509.03,37.69h16.22l18.83,59.96h-14.35l-7.84-30.37c-1.67-6-3.27-13.08-4.87-19.34h-.37c-1.45,6.33-3.05,13.34-4.72,19.34l-7.88,30.37h-13.86l18.83-59.96ZM1502.62,72.83h28.85v10.54h-28.85v-10.54Z"/>
  <path class="cls-2" d="M1549.86,37.69h13.56v48.59h23.67v11.37h-37.22v-59.96Z"/>
  <g>
    <path class="cls-1" d="M34.49,111.66c-16.75-20.36-10.28-53.44,14.4-73.63,24.68-20.2,58.46-20.06,75.2.3,16.74,20.36,10.28,53.43-14.4,73.63-24.68,20.19-58.46,20.06-75.2-.3M34.45,111.69c15.02,18.26,47.38,16.68,72.05-3.51,24.67-20.19,32.54-51.54,17.52-69.8-15.02-18.26-47.38-16.68-72.05,3.5-24.67,20.19-32.54,51.54-17.52,69.8M34.51,111.64c9.49,11.53,37.33,4.49,61.98-15.69,24.65-20.18,37.02-46.04,27.53-57.57-9.49-11.53-37.33-4.49-61.98,15.69-24.65,20.18-37.02,46.04-27.53,57.57M34.51,111.64c7.29,8.86,33.33-.37,57.99-20.55,24.65-20.17,38.82-43.85,31.53-52.71-7.29-8.86-33.33.37-57.98,20.55-24.65,20.18-38.82,43.86-31.53,52.71M35.54,112.9c.3.37.84.43,1.2.14L124.81,40.96c.36-.29.4-.83.1-1.2l-2.06-2.51c-.3-.37-.84-.43-1.2-.14L33.57,109.19c-.36.29-.4.83-.1,1.2l2.06,2.51ZM41.84,29.84c-24.74,20.25-28.05,57.26-7.37,82.41,20.68,25.14,57.72,29.14,82.46,8.89,24.74-20.25,28.05-57.26,7.37-82.41-20.68-25.14-57.72-29.14-82.46-8.89M41.84,29.85c-20.05,16.41-19.52,50.32,1.19,75.49,20.7,25.17,53.94,32.31,73.98,15.91,20.05-16.41,19.52-50.32-1.19-75.49-20.7-25.17-53.94-32.31-73.99-15.91M41.81,29.81c-17.98,14.71-15.76,47.23,4.93,72.39,20.69,25.16,52.23,33.68,70.21,18.96,17.98-14.71,15.76-47.23-4.93-72.39C91.33,23.62,59.79,15.1,41.81,29.81M41.86,29.87c-11.36,9.3-3.75,37.38,16.93,62.53,20.68,25.14,46.81,38.07,58.17,28.77,11.36-9.29,3.75-37.38-16.93-62.53-20.68-25.14-46.81-38.07-58.17-28.78M41.86,29.87c-8.72,7.14,1.03,33.47,21.71,58.61,20.68,25.14,44.66,39.83,53.39,32.69,8.72-7.14-1.03-33.47-21.71-58.61-20.68-25.14-44.66-39.83-53.39-32.69M40.63,30.88c-.36.3-.41.84-.12,1.2l73.89,89.83c.3.36.84.42,1.2.12l2.47-2.02c.36-.3.41-.84.12-1.2L44.3,28.98c-.3-.36-.84-.42-1.2-.12l-2.47,2.02Z"/>
    <path class="cls-2" d="M27.65,127.16l2.2-2.77.17.17c-.48,1-.67,1.88-.56,2.63.11.75.46,1.41,1.05,1.98.5.48,1.06.78,1.69.91.63.13,1.32.02,2.07-.33.74-.34,1.5-.94,2.26-1.78.63-.69,1.07-1.4,1.31-2.12.25-.72.28-1.42.09-2.11-.19-.69-.56-1.31-1.12-1.84-.48-.47-1.01-.77-1.57-.92-.56-.14-1.36-.11-2.37.09l-.07-.28c.99-.32,1.89-.4,2.67-.24.79.16,1.52.58,2.21,1.24,1.24,1.19,1.77,2.59,1.59,4.18-.13,1.19-.63,2.26-1.49,3.21-.7.77-1.5,1.31-2.42,1.63-.92.32-1.83.37-2.73.16-.91-.21-1.7-.65-2.4-1.32-.54-.52-.95-1.17-1.23-1.95-.08-.23-.15-.38-.22-.44-.1-.1-.22-.14-.36-.14-.19,0-.38.08-.59.23l-.19-.19Z"/>
    <path class="cls-2" d="M24.74,122.37l3.18-2.56-1.38-1.82c-.36-.47-.67-.73-.93-.78-.34-.07-.75.07-1.23.42l-.17-.23,2.8-2.25.17.23c-.35.37-.55.63-.62.78-.08.18-.1.39-.05.62.05.23.2.52.47.87l1.38,1.82,2.65-2.13c.36-.29.56-.48.61-.57.05-.09.07-.2.05-.32-.02-.12-.11-.29-.28-.52l-1.07-1.41c-.36-.47-.65-.78-.87-.94-.22-.16-.5-.27-.84-.31-.44-.06-1-.02-1.7.11l-.19-.24,2.56-.91,4.85,6.39-.22.18-.22-.29c-.15-.2-.33-.34-.56-.45-.16-.08-.32-.09-.49-.04-.16.05-.44.24-.83.56l-5.22,4.2c-.51.41-.78.72-.82.92-.05.27.06.58.32.93l.22.29-.22.18-4.85-6.39,1.69-1.51.18.24c-.36.43-.58.75-.66.99-.08.23-.08.48-.01.75.06.21.25.52.57.93l1.73,2.27Z"/>
    <path class="cls-2" d="M19.83,116.83l-1.33-2.5,3.7-9.43-5.16,2.91c-.55.31-.86.57-.93.77-.1.27-.05.59.15.95l.17.32-.24.14-1.71-3.21.24-.14.17.33c.21.39.47.6.79.64.19.02.54-.11,1.04-.39l7.54-4.25.13.24-3.96,10.15,5.51-3.11c.55-.31.86-.57.93-.76.09-.28.04-.6-.15-.95l-.17-.33.24-.14,1.71,3.21-.24.14-.17-.32c-.21-.39-.47-.61-.79-.64-.19-.02-.54.11-1.04.39l-6.22,3.51c-.16.44-.25.75-.28.95-.02.19,0,.45.05.76.03.15.12.36.26.63l-.24.14Z"/>
    <path class="cls-2" d="M10.92,96.72l2.22-.93.1.28c-.38.2-.64.38-.77.53-.22.25-.35.53-.4.82-.04.3,0,.65.15,1.06l.48,1.4,7.35-2.68c.59-.22.94-.42,1.04-.6.13-.26.14-.58,0-.97l-.12-.34.26-.1,1.45,4.2-.26.1-.12-.35c-.14-.42-.37-.67-.68-.76-.19-.05-.55.02-1.09.22l-7.35,2.68.41,1.19c.16.46.31.78.44.95.18.22.43.37.74.46.32.09.7.07,1.15-.06l.1.28-2.3.71-2.8-8.09Z"/>
    <path class="cls-2" d="M18.47,82.57l.52,2.76-4.03,4.42c.06.26.1.47.13.63.01.07.02.14.04.21.01.08.02.16.03.24l2.91-.57c.63-.12,1.01-.27,1.14-.44.18-.24.24-.55.16-.93l-.08-.4.27-.06.83,4.43-.27.05-.07-.39c-.08-.44-.28-.72-.59-.86-.17-.08-.55-.06-1.12.05l-6.48,1.27c-.63.12-1.01.27-1.14.44-.18.24-.23.56-.16.95l.07.39-.27.05-.7-3.76c-.21-1.1-.28-1.92-.22-2.47.06-.55.26-1.05.61-1.49.35-.45.81-.72,1.39-.84.62-.12,1.19-.02,1.72.31.53.33.97.9,1.32,1.74l2.48-2.7c.57-.62.93-1.12,1.08-1.52.15-.39.2-.88.16-1.45l.27-.05ZM14.69,90.91c-.02-.1-.03-.18-.04-.25-.01-.07-.02-.13-.03-.18-.18-.99-.53-1.69-1.04-2.11-.51-.42-1.08-.57-1.72-.44-.63.12-1.1.42-1.41.91-.32.48-.41,1.05-.29,1.72.06.29.18.68.37,1.17l4.17-.82Z"/>
    <path class="cls-2" d="M7.93,77.52c-.03-1.37.45-2.56,1.43-3.58.98-1.02,2.23-1.55,3.74-1.58,1.55-.03,2.85.45,3.89,1.43,1.05.99,1.58,2.2,1.61,3.63.03,1.45-.44,2.67-1.42,3.68-.98,1.01-2.26,1.52-3.85,1.56-1.62.03-2.96-.51-4-1.63-.91-.97-1.38-2.14-1.41-3.52M8.49,77.66c.02.94.37,1.69,1.06,2.24.86.69,2.1,1.02,3.73.99,1.67-.03,2.94-.43,3.82-1.18.67-.58,1-1.33.98-2.25-.02-.99-.41-1.79-1.17-2.42-.76-.63-1.95-.93-3.56-.89-1.75.04-3.04.42-3.88,1.14-.67.58-.99,1.38-.97,2.38"/>
    <path class="cls-2" d="M9.24,64.86l-.28-.05.75-4.44.28.05-.06.37c-.07.42,0,.75.21.99.14.15.51.28,1.11.39l4.92.9c.76.14,1.36.34,1.8.59.44.26.8.63,1.08,1.11.28.48.37,1.02.27,1.61-.08.48-.26.84-.54,1.07-.28.23-.56.32-.86.27-.24-.04-.41-.14-.52-.29-.12-.2-.17-.41-.13-.63.03-.16.1-.3.23-.41.13-.11.43-.22.92-.34.29-.07.45-.19.48-.38.02-.14-.04-.28-.18-.43-.14-.15-.42-.26-.84-.34l-6.87-1.26c-.51-.09-.85-.12-1.03-.09-.13.03-.26.12-.37.26-.16.2-.25.42-.3.66l-.06.37Z"/>
    <path class="cls-2" d="M12.31,52.08l-.27-.09,1.09-3.55.27.09-.12.38c-.12.39-.05.75.2,1.07.12.15.45.32.99.5l3.95,1.3c.98.32,1.7.67,2.18,1.05.48.38.82.92,1.02,1.63.21.71.15,1.57-.16,2.57-.34,1.09-.78,1.86-1.32,2.31-.54.45-1.16.68-1.86.72-.47.02-1.3-.17-2.47-.55l-3.8-1.25c-.6-.2-1.02-.24-1.25-.13-.24.11-.42.35-.53.73l-.12.38-.27-.09,1.33-4.33.27.09-.12.38c-.13.41-.09.75.11,1.01.13.18.47.36,1.02.54l4.24,1.4c.38.12.82.23,1.33.32.51.09.93.09,1.26-.01.33-.1.64-.29.92-.59.29-.29.51-.7.67-1.21.2-.65.24-1.29.13-1.9-.12-.61-.36-1.08-.74-1.41-.37-.33-1.08-.67-2.11-1.01l-3.94-1.3c-.61-.2-1.01-.26-1.2-.17-.27.12-.46.37-.58.75l-.12.38Z"/>
    <path class="cls-2" d="M27.55,42.35l-1.24,2.5-5.82.91c-.11.24-.2.43-.27.58-.03.06-.06.12-.1.19-.04.07-.08.14-.12.21l2.64,1.4c.57.3.96.43,1.16.37.28-.07.51-.28.69-.63l.18-.37.25.13-2,4.01-.25-.13.18-.35c.2-.4.21-.74.05-1.05-.09-.17-.39-.39-.91-.67l-5.87-3.11c-.57-.3-.96-.43-1.16-.37-.29.07-.52.29-.69.64l-.18.35-.25-.13,1.7-3.41c.49-.99.93-1.69,1.31-2.08.38-.4.83-.66,1.38-.79.54-.13,1.07-.05,1.6.22.56.3.95.74,1.17,1.33.22.59.22,1.33,0,2.2l3.57-.55c.82-.12,1.4-.29,1.76-.5.35-.21.69-.56.99-1.04l.25.13ZM19.57,46.51c.04-.09.08-.16.12-.22.03-.06.06-.12.08-.16.44-.89.59-1.66.44-2.31-.15-.65-.51-1.13-1.1-1.44-.57-.3-1.12-.36-1.66-.19-.54.18-.96.57-1.26,1.17-.13.27-.27.65-.41,1.15l3.78,2.01Z"/>
    <path class="cls-2" d="M18.63,31.37l.91,3.4-.14.22-1.71-2.18.94-1.44ZM29.9,38.61l.23.16-2.45,3.73-.23-.16.2-.31c.24-.36.31-.69.21-1-.07-.2-.35-.47-.86-.82l-5.47-3.82c-.43-.3-.73-.47-.9-.51-.13-.03-.28,0-.44.08-.22.12-.4.28-.54.49l-.2.31-.23-.16,2.45-3.73.23.16-.21.32c-.23.35-.3.69-.2.99.06.2.35.48.86.83l5.47,3.81c.43.3.73.47.9.51.13.03.28,0,.45-.08.22-.11.4-.27.53-.48l.21-.31Z"/>
    <path class="cls-2" d="M30.17,38.37l-.21-.19.25-.3c.28-.33.38-.66.3-.99-.05-.2-.29-.49-.73-.89l-4.95-4.5c-.48-.44-.83-.65-1.04-.65-.3,0-.57.15-.83.45l-.25.3-.21-.19,2.74-3.21c1.01-1.18,1.9-1.96,2.69-2.33.79-.38,1.64-.48,2.57-.3.93.18,1.79.63,2.58,1.35,1.07.97,1.67,2.11,1.82,3.43.16,1.47-.41,2.98-1.72,4.51l-3.01,3.52ZM31.54,35.62c.53-.4.93-.76,1.22-1.09.77-.9,1.1-1.92.99-3.08-.11-1.15-.69-2.2-1.74-3.16-1.06-.96-2.15-1.42-3.27-1.38-1.12.04-2.07.52-2.87,1.45-.3.35-.58.8-.86,1.34l6.52,5.92Z"/>
    <path class="cls-2" d="M40.64,26.91l.18.22-3.28,2.97-.18-.22.27-.25c.32-.29.46-.59.45-.91-.02-.21-.23-.55-.63-1.02l-4.36-5.11c-.34-.4-.59-.64-.75-.73-.12-.06-.27-.08-.45-.04-.25.06-.46.17-.64.33l-.27.25-.18-.22,3.28-2.97.18.22-.28.25c-.31.28-.46.58-.44.9.01.21.22.55.63,1.03l4.36,5.11c.34.4.59.64.75.73.12.06.27.07.45.04.24-.05.45-.16.63-.33l.28-.25Z"/>
    <path class="cls-2" d="M42.53,12.65l2.15,2.82-.19.14c-.84-.7-1.63-1.08-2.37-1.14-.73-.05-1.43.15-2.1.62-.56.39-.97.9-1.22,1.51-.26.61-.3,1.33-.13,2.15.17.82.57,1.71,1.2,2.66.52.79,1.1,1.38,1.72,1.79.63.4,1.29.59,1.98.55.69-.04,1.36-.28,1.99-.72.55-.38.95-.84,1.21-1.38.26-.54.4-1.34.42-2.41h.28c.09,1.06-.03,1.98-.35,2.73-.32.75-.87,1.4-1.65,1.95-1.4.98-2.83,1.21-4.31.68-1.1-.39-2.01-1.13-2.72-2.2-.58-.87-.92-1.8-1.02-2.79-.11-.99.04-1.92.43-2.78.39-.86.98-1.57,1.77-2.12.61-.43,1.31-.7,2.11-.81.24-.03.39-.07.47-.12.11-.08.18-.19.21-.33.03-.19,0-.41-.09-.64l.22-.15Z"/>
    <path class="cls-2" d="M49.62,8.94c1.2-.57,2.46-.59,3.76-.07,1.3.53,2.27,1.49,2.9,2.9.65,1.45.75,2.87.29,4.25-.46,1.38-1.32,2.37-2.58,2.97-1.28.6-2.56.64-3.84.12-1.29-.52-2.26-1.53-2.93-3.01-.68-1.52-.73-2.99-.16-4.43.5-1.24,1.35-2.15,2.56-2.73M49.72,9.51c-.83.39-1.35,1.03-1.57,1.9-.27,1.09-.06,2.39.62,3.91.7,1.56,1.56,2.61,2.58,3.14.78.4,1.58.41,2.4.03.87-.41,1.43-1.1,1.69-2.07.25-.97.04-2.21-.63-3.72-.73-1.64-1.59-2.71-2.57-3.21-.79-.4-1.62-.39-2.51.02"/>
    <path class="cls-2" d="M66.84,14l.07.28-4.24,1.09-.07-.28.35-.09c.41-.11.68-.31.8-.6.08-.19.04-.59-.11-1.2l-1.61-6.59c-.13-.52-.24-.85-.35-1-.08-.11-.21-.2-.38-.25-.24-.07-.48-.07-.72,0l-.35.09-.07-.28,4.24-1.09.07.28-.36.09c-.4.1-.67.3-.79.6-.08.19-.05.59.1,1.21l1.61,6.59c.13.52.24.85.35,1,.08.11.21.19.39.25.24.07.48.07.71,0l.36-.09Z"/>
    <path class="cls-2" d="M65.49,3.63l2.75-.34,7.11,7.08-.71-6.02c-.08-.64-.19-1.03-.35-1.18-.21-.19-.51-.27-.91-.22l-.35.04-.03-.29,3.53-.43.03.29-.36.04c-.43.05-.72.22-.86.51-.09.18-.1.56-.03,1.14l1.03,8.8-.27.03-7.67-7.6.75,6.43c.08.64.19,1.03.34,1.18.22.19.52.27.91.22l.36-.04.03.28-3.53.43-.03-.29.35-.04c.43-.05.72-.22.87-.51.09-.18.1-.56.03-1.14l-.85-7.26c-.34-.32-.59-.53-.75-.62-.16-.09-.4-.17-.71-.23-.15-.03-.37-.02-.66.01l-.03-.29Z"/>
    <path class="cls-2" d="M86.92,2.68v2.47s-.27-.01-.27-.01c-.04-.44-.1-.75-.19-.94-.14-.31-.34-.54-.59-.69-.25-.15-.59-.24-1.01-.26l-1.44-.07-.33,8.03c-.03.65.02,1.05.15,1.22.18.23.47.35.87.37l.35.02v.29s-4.34-.2-4.34-.2v-.29s.37.02.37.02c.43.02.74-.1.93-.36.12-.16.19-.53.21-1.12l.32-8.03-1.23-.06c-.48-.02-.82,0-1.02.06-.26.09-.5.27-.69.54-.2.27-.32.64-.38,1.12h-.29s.22-2.47.22-2.47l8.33.38Z"/>
    <path class="cls-2" d="M91.61,4.04l-.76,4.08,2.2.44c.57.11.97.1,1.2-.04.3-.18.52-.56.66-1.15l.27.05-.67,3.59-.27-.05c.02-.52.02-.85-.03-1.01-.06-.2-.17-.36-.36-.51-.18-.14-.48-.26-.9-.34l-2.2-.44-.63,3.4c-.09.46-.12.74-.1.84.02.11.08.2.16.28.09.08.27.14.55.2l1.7.34c.57.11.99.16,1.26.13.27-.03.55-.14.83-.33.36-.25.77-.67,1.2-1.24l.3.06-1.35,2.42-7.73-1.55.05-.28.36.07c.24.05.47.03.71-.04.17-.05.3-.15.39-.3.09-.15.18-.48.27-.98l1.25-6.71c.12-.65.13-1.07.03-1.25-.14-.24-.42-.4-.83-.48l-.36-.07.05-.28,7.73,1.55-.31,2.28-.29-.06c0-.56-.05-.96-.14-1.19-.09-.23-.25-.42-.47-.58-.18-.12-.52-.22-1.02-.32l-2.75-.55Z"/>
    <path class="cls-2" d="M105.33,18.52l-2.57-.95-1.65-5.83c-.24-.08-.44-.15-.59-.2-.06-.02-.13-.05-.2-.08-.07-.03-.14-.06-.22-.09l-1,2.88c-.22.62-.28,1.03-.2,1.23.11.28.34.49.7.62l.38.14-.09.27-4.12-1.53.09-.27.36.13c.41.15.74.12,1.01-.08.15-.11.33-.45.52-1.02l2.22-6.39c.22-.62.28-1.03.2-1.23-.11-.28-.35-.49-.71-.63l-.36-.13.09-.27,3.5,1.3c1.02.38,1.75.73,2.18,1.07.43.33.74.77.94,1.3.2.54.19,1.09,0,1.66-.21.61-.59,1.06-1.13,1.37-.54.3-1.25.4-2.12.28l1,3.57c.23.82.47,1.4.72,1.73.25.33.63.63,1.13.88l-.09.27ZM100.27,10.91c.09.03.17.06.23.09.07.03.12.05.16.06.92.34,1.68.39,2.29.16.61-.24,1.02-.67,1.24-1.3.21-.62.2-1.19-.04-1.72-.24-.53-.67-.9-1.29-1.13-.27-.1-.66-.19-1.16-.28l-1.43,4.12Z"/>
    <path class="cls-2" d="M109.65,9l2.42,1.4,1.71,10.03,2.87-5.29c.31-.56.44-.95.39-1.16-.06-.28-.26-.53-.61-.73l-.31-.18.14-.25,3.1,1.79-.14.25-.32-.18c-.38-.22-.71-.26-.99-.11-.18.09-.4.39-.68.9l-4.2,7.73-.24-.14-1.86-10.78-3.07,5.64c-.31.56-.44.95-.4,1.16.06.29.27.53.61.73l.32.18-.14.25-3.1-1.79.14-.25.31.18c.38.22.71.26,1,.12.17-.09.4-.39.68-.9l3.47-6.38c-.09-.46-.17-.78-.25-.96-.08-.18-.23-.38-.44-.62-.1-.11-.29-.25-.55-.4l.14-.25Z"/>
    <path class="cls-2" d="M121.85,25.53l-3.06-2.58-1.56.83c-.38.21-.64.39-.76.54-.1.12-.13.28-.09.47.04.19.24.46.6.81l-.18.22-2.49-2.1.18-.22c.38.22.65.32.83.31.35-.03.88-.23,1.59-.62l8.09-4.35.2.17-2.61,9.09c-.21.73-.29,1.25-.24,1.57.05.31.23.62.54.91l-.18.22-3.12-2.63.18-.22c.33.25.58.37.77.38.18,0,.33-.06.43-.2.14-.18.28-.52.43-1.03l.45-1.57ZM122.04,24.95l1.26-4.42-3.98,2.13,2.72,2.29Z"/>
    <path class="cls-2" d="M136.51,30.79l-2.46,2.53-.15-.18c.58-.95.85-1.8.81-2.55-.04-.76-.32-1.45-.85-2.08-.45-.53-.98-.89-1.6-1.08-.62-.19-1.32-.16-2.09.11-.77.27-1.58.78-2.42,1.53-.7.62-1.2,1.28-1.51,1.97-.31.69-.41,1.39-.29,2.09.12.71.43,1.36.93,1.95.44.51.93.87,1.48,1.07.55.2,1.34.25,2.37.15l.04.28c-1.02.22-1.92.2-2.68-.04-.77-.24-1.46-.73-2.08-1.46-1.11-1.31-1.51-2.76-1.17-4.33.25-1.17.85-2.18,1.8-3.04.77-.69,1.62-1.15,2.56-1.37.94-.22,1.85-.18,2.74.12.88.3,1.63.82,2.26,1.56.49.57.83,1.26,1.03,2.06.06.24.11.39.17.46.09.1.2.16.34.18.19,0,.39-.05.61-.17l.17.2Z"/>
    <path class="cls-2" d="M131.91,42.38l-.23.16-2.46-3.73.23-.16.2.31c.24.36.51.55.82.57.2.01.55-.16,1.06-.52l5.45-3.81c.43-.3.69-.52.79-.68.08-.11.11-.27.09-.45-.03-.26-.1-.49-.24-.7l-.2-.31.23-.16,2.46,3.73-.23.16-.21-.32c-.23-.36-.51-.54-.82-.56-.2-.01-.56.15-1.06.51l-5.45,3.81c-.43.3-.69.52-.79.68-.08.12-.11.27-.09.46.02.25.1.48.24.69l.21.32Z"/>
    <path class="cls-2" d="M143.76,42.82c.6,1.22.67,2.51.21,3.87-.46,1.36-1.36,2.39-2.7,3.09-1.38.72-2.75.87-4.11.44-1.36-.42-2.35-1.28-2.98-2.55-.64-1.29-.73-2.61-.27-3.95.46-1.34,1.39-2.38,2.81-3.12,1.45-.75,2.87-.86,4.29-.32,1.23.47,2.14,1.32,2.75,2.55M143.2,42.94c-.41-.84-1.05-1.36-1.9-1.55-1.06-.24-2.32.02-3.77.77-1.49.77-2.47,1.7-2.95,2.77-.36.82-.34,1.64.07,2.47.43.88,1.13,1.44,2.08,1.66.95.23,2.14-.03,3.58-.78,1.56-.81,2.56-1.73,3.02-2.76.36-.82.32-1.68-.12-2.58"/>
    <path class="cls-2" d="M146.47,49.06l.81,2.73-5.49,8.45,5.63-1.76c.6-.19.95-.37,1.06-.56.15-.25.16-.57.04-.96l-.1-.35.27-.08,1.04,3.5-.27.08-.11-.36c-.13-.43-.34-.69-.64-.79-.19-.06-.55,0-1.1.17l-8.23,2.58-.08-.27,5.89-9.1-6.01,1.88c-.6.19-.95.37-1.06.55-.15.25-.16.57-.04.96l.11.36-.27.08-1.04-3.5.27-.08.1.35c.13.43.34.7.65.8.19.06.55,0,1.1-.17l6.79-2.13c.24-.4.4-.69.46-.87.06-.18.09-.44.1-.76,0-.16-.04-.38-.13-.67l.27-.08Z"/>
    <path class="cls-2" d="M144.22,69.66l-.49-4.04-1.68-.51c-.41-.12-.72-.18-.91-.15-.15.02-.28.11-.38.28-.1.17-.14.5-.11,1.01l-.28.03-.4-3.29.28-.03c.13.43.26.7.39.81.27.23.79.46,1.56.69l8.78,2.62.03.27-7.99,4.7c-.64.38-1.05.7-1.22.96-.17.26-.25.61-.22,1.04l-.28.04-.5-4.12.28-.04c.07.41.17.69.3.82.13.13.28.19.45.17.22-.03.55-.17,1-.44l1.38-.81ZM144.74,69.37l3.88-2.29-4.31-1.3.43,3.59Z"/>
    <path class="cls-2" d="M143.73,83.07l-.06.26-2.74-1.01.3-8.14h.28s-.01.41-.01.41c-.02.44.11.77.39.97.16.12.53.19,1.11.21l6.58.27c.64.03,1.04-.03,1.2-.17.23-.19.35-.49.36-.88v-.4s.29.01.29.01l-.18,4.76h-.28c.03-.57,0-.96-.11-1.19-.1-.23-.22-.39-.38-.48-.16-.09-.54-.15-1.15-.17l-6.41-.27c-.42-.02-.7.01-.86.09-.11.06-.19.15-.24.28-.05.13-.09.53-.12,1.21l-.03.77c-.03.81,0,1.37.11,1.71.1.33.3.64.58.92.28.28.74.57,1.36.86"/>
    <path class="cls-2" d="M149.01,95.98l-3.44-.84.06-.28c.68.07,1.24.04,1.69-.1.44-.14.83-.39,1.16-.77.33-.38.55-.8.65-1.26.12-.52.06-.99-.17-1.41-.23-.42-.55-.68-.94-.77-.3-.07-.6-.03-.9.12-.44.22-1.1.84-1.97,1.87-.72.83-1.25,1.39-1.59,1.68-.35.28-.72.48-1.13.58-.4.1-.8.1-1.2,0-.75-.18-1.33-.64-1.74-1.38-.41-.73-.5-1.57-.29-2.52.07-.3.15-.57.26-.82.06-.15.22-.45.49-.9.27-.45.41-.75.44-.88.03-.13.01-.23-.04-.32-.06-.09-.2-.18-.42-.27l.06-.28,3.41.83-.06.28c-.74-.04-1.32,0-1.72.14-.41.14-.78.4-1.12.8-.34.4-.57.87-.69,1.41-.14.63-.1,1.16.14,1.61.24.44.58.72,1.02.83.24.06.51.05.79-.03.28-.08.56-.24.84-.47.19-.16.63-.62,1.3-1.38.68-.76,1.2-1.29,1.57-1.59.37-.3.74-.5,1.13-.61.39-.11.78-.11,1.19,0,.71.17,1.26.61,1.65,1.3.39.69.48,1.47.28,2.34-.12.54-.38,1.09-.78,1.63-.19.25-.29.44-.32.55-.03.13-.02.25.04.35.06.1.19.21.41.31l-.06.28Z"/>
    <path class="cls-2" d="M139.22,97.09c-.08.23-.22.4-.42.5-.21.1-.42.12-.64.04-.22-.08-.38-.22-.48-.44-.1-.21-.12-.43-.04-.66.07-.23.22-.39.42-.49.21-.1.42-.12.64-.04.22.08.38.22.48.44.1.21.11.43.04.66"/>
    <path class="cls-2" d="M137.58,106.37l1.7-3.67-1.16-1.36c-.28-.34-.52-.55-.69-.63-.14-.07-.3-.06-.47.02-.17.09-.38.35-.62.79l-.25-.12,1.38-2.99.25.12c-.12.43-.15.73-.09.9.11.34.43.83.96,1.44l6.04,7.08-.11.24-9.2-.48c-.74-.04-1.25,0-1.53.13-.28.13-.53.38-.73.75l-.25-.12,1.73-3.74.25.12c-.16.39-.21.67-.17.86.04.18.14.31.29.39.2.1.56.16,1.07.19l1.59.08ZM138.17,106.42l4.47.23-2.96-3.49-1.51,3.26Z"/>
    <path class="cls-2" d="M132.9,110.75c-.13.2-.3.33-.52.38-.22.05-.43.01-.63-.12-.2-.13-.32-.31-.37-.54-.05-.23-.02-.45.11-.65.12-.2.3-.33.52-.38.23-.05.44-.01.63.11.2.13.32.31.37.54.05.23.01.45-.11.65"/>
    <path class="cls-2" d="M134.82,123.83l-2.8-2.23.17-.23c.59.35,1.12.56,1.58.63.46.06.92,0,1.37-.21.45-.2.82-.49,1.1-.87.32-.43.46-.88.41-1.36-.04-.48-.23-.85-.55-1.1-.25-.2-.54-.29-.87-.27-.49.02-1.34.3-2.55.86-.99.45-1.7.74-2.13.85-.43.11-.85.13-1.26.05-.41-.08-.77-.25-1.1-.51-.61-.49-.96-1.15-1.03-1.99-.08-.84.17-1.65.75-2.41.18-.24.37-.45.57-.64.11-.11.38-.32.81-.61.42-.3.68-.5.76-.61.08-.1.11-.21.09-.31-.01-.11-.11-.25-.27-.43l.17-.23,2.77,2.21-.17.23c-.66-.36-1.2-.56-1.62-.61-.42-.05-.87.03-1.34.25-.47.22-.87.55-1.2.99-.38.51-.56,1.02-.52,1.52.04.5.24.9.6,1.18.2.16.44.26.73.31.29.05.61.02.96-.07.24-.06.82-.3,1.74-.7.92-.4,1.61-.66,2.07-.78.46-.12.88-.14,1.28-.08.39.07.76.23,1.09.5.58.46.91,1.09.98,1.88.08.79-.15,1.54-.68,2.25-.33.44-.79.82-1.37,1.15-.27.15-.44.27-.51.37-.08.11-.11.22-.1.33.01.12.09.27.25.46l-.17.23Z"/>
    <path class="cls-2" d="M125.45,120.67c-.16.18-.36.27-.59.27-.23,0-.43-.07-.6-.24-.17-.16-.26-.36-.26-.6,0-.24.07-.44.23-.62.16-.17.35-.26.58-.27.23,0,.43.07.6.24.17.17.26.37.27.6,0,.23-.07.44-.23.61"/>
  </g>
</svg>