<?xml version="1.0" encoding="UTF-8"?>
<svg id="REVISTA_AJE" data-name="REVISTA AJE" xmlns="http://www.w3.org/2000/svg" viewBox="0 0 257.27 250.89">
  <defs>
    <style>
      .cls-1 {
        fill: #348c31;
        fill-rule: evenodd;
        stroke-width: 0px;
      }
    </style>
  </defs>
  <path class="cls-1" d="M14.92,179.65c-26.5-50.17,2.58-115.88,64.74-146.28,62.16-30.39,134.47-14.27,160.97,35.91,26.5,50.17-2.58,115.88-64.74,146.28-62.16,30.4-134.47,14.27-160.97-35.9M14.83,179.69c23.76,44.99,93.83,56.91,155.96,26.52,62.13-30.38,93.42-91.86,69.66-136.85-23.76-44.99-93.82-56.91-155.96-26.52C22.36,73.22-8.94,134.7,14.83,179.69M14.97,179.62c15.01,28.42,77.91,26.84,140-3.53,62.1-30.37,100.5-78.31,85.48-106.74-15.01-28.42-77.9-26.84-140,3.53C38.35,103.25-.05,151.2,14.97,179.62M14.97,179.62c11.53,21.83,71.58,14.87,133.68-15.5,62.1-30.37,103.34-72.93,91.8-94.77-11.53-21.83-71.58-14.87-133.67,15.5C44.68,115.22,3.44,157.79,14.97,179.62M16.6,182.71c.48.91,1.61,1.29,2.51.85l221.85-108.49c.9-.44,1.24-1.54.76-2.45l-3.26-6.18c-.48-.91-1.61-1.29-2.51-.85L14.1,174.09c-.9.44-1.24,1.54-.76,2.45l3.26,6.18ZM68.32,13.04C6.01,43.51-18.12,118.9,14.61,180.86c32.73,61.96,110.24,87.64,172.56,57.17,62.31-30.47,86.44-105.86,53.71-167.82C208.15,8.25,130.63-17.43,68.32,13.04M68.33,13.06C17.83,37.76,3.37,108.49,36.13,170.52c32.76,62.03,100.67,92.47,151.17,67.78,50.5-24.69,64.97-95.43,32.2-157.45C186.74,18.82,118.83-11.63,68.33,13.06M68.28,12.97C23,35.12,12.77,103.75,45.52,165.75c32.75,62,96.4,94.51,141.69,72.36,45.29-22.14,55.51-90.78,22.76-152.78C177.22,23.33,113.57-9.17,68.28,12.97M68.36,13.11c-28.61,13.99-25.25,75.94,7.48,137.9,32.73,61.96,82.76,101.09,111.37,87.1,28.61-13.99,25.25-75.94-7.48-137.9C146.99,38.25,96.96-.88,68.36,13.11M68.36,13.11c-21.97,10.75-13.2,70.05,19.53,132.01,32.73,61.96,77.35,103.74,99.32,92.99,21.97-10.74,13.2-70.05-19.53-132.01C134.94,44.14,90.33,2.36,68.36,13.11M65.25,14.63c-.91.45-1.27,1.55-.8,2.44l116.94,221.39c.47.9,1.61,1.27,2.52.82l6.22-3.04c.91-.45,1.27-1.55.8-2.44L73.99,12.41c-.47-.9-1.61-1.27-2.52-.82l-6.22,3.04Z"/>
</svg>